:SAMPLES-PER-SECOND 30
:FRAME-RANGE 1-1700
:FULLY-SPECIFIED
:DEGREES
1382
root  14.5604 36.2365 -73.8379 168.632 49.8625 -179.666
RightUpLeg  -12.3598 -1.53137 4.68756
RightLeg  49.526 -12.4968 -15.538
RightFoot  -23.325 0.498835 6.25601
RightToes  -1.16417e-010 0 -3.6325e-017
Spine  19.9311 -0.626969 -4.28695
Spine1  -0.464248 -7.45162 14.3806
HEad  -14.9124 -49.0614 15.5109
LeftShoulder1  2.7674 -4.54423 -28.3283
LeftArm  77.7103 -35.4514 -80.742
LeftForeArm  -13.6539 -15.5444 -14.1737
LeftHand  0.0922718 3.30056 -6.39523
RightShoulder  13.222 21.715 45.7249
RightArm  21.8093 12.2844 20.3578
RightForeArm  33.7087 35.8844 6.10483
RightHand  1.41407 4.96548 15.427
LeftUpLeg  -110.056 27.0579 -83.3345
LeftLeg  129.421 -1.35972 1.10064
LeftFoot  23.7031 5.41267 -17.5068
LeftToes  1.03528e-008 1.55373e-010 -2.26046e-010
1383
root  14.7115 36.373 -73.2087 169.641 45.1685 -178.752
RightUpLeg  -12.5778 -2.58537 6.13322
RightLeg  48.8685 -15.5011 -18.4625
RightFoot  -22.0294 0.449186 6.3947
RightToes  -1.16417e-010 0 -3.6325e-017
Spine  19.1809 -1.4595 -4.14879
Spine1  -0.628391 -8.06497 13.8972
HEad  -14.0344 -50.3435 15.8828
LeftShoulder1  2.90685 -4.76213 -29.1286
LeftArm  76.626 -35.4433 -81.7297
LeftForeArm  -11.5546 -15.331 -14.2362
LeftHand  0.0858798 3.41272 -6.42576
RightShoulder  12.1035 20.2222 44.4641
RightArm  21.1661 11.53 20.3021
RightForeArm  33.3917 37.3166 6.50591
RightHand  1.38798 4.40364 16.0398
LeftUpLeg  -107.596 27.9476 -85.4319
LeftLeg  128.95 -1.07048 0.789712
LeftFoot  26.5083 5.42005 -16.2135
LeftToes  1.03528e-008 1.55373e-010 -2.26046e-010
1384
root  14.7443 37.1015 -72.498 170.15 42.7291 -179.218
RightUpLeg  -11.7377 -4.25686 6.1561
RightLeg  43.6704 -17.7209 -17.5485
RightFoot  -18.8827 0.169901 4.5181
RightToes  -1.16417e-010 0 -3.6325e-017
Spine  18.6734 -1.44788 -5.00403
Spine1  -0.629556 -8.08694 13.4042
HEad  -14.3965 -50.2737 16.8052
LeftShoulder1  2.98673 -4.93055 -29.3794
LeftArm  79.7862 -34.3415 -81.4422
LeftForeArm  -14.9491 -16.4357 -13.4378
LeftHand  0.125624 2.81171 -6.55004
RightShoulder  11.7264 20.1089 43.2199
RightArm  21.603 9.94106 20.6662
RightForeArm  35.1452 39.1143 6.90193
RightHand  1.4044 4.48464 16.0927
LeftUpLeg  -106.721 28.9138 -87.58
LeftLeg  129.314 0.633554 -1.16261
LeftFoot  22.7803 4.76537 -15.9125
LeftToes  1.03528e-008 1.55373e-010 -2.26046e-010
1385
root  14.646 38.1676 -71.7512 171.436 42.9185 -179.74
RightUpLeg  -10.1309 -4.56093 6.27274
RightLeg  34.2259 -19.3348 -13.8431
RightFoot  -13.7992 -0.0478206 2.12806
RightToes  -1.16417e-010 0 -3.6325e-017
Spine  18.562 -0.740853 -5.38674
Spine1  -1.7367 -7.20152 12.4497
HEad  -13.8561 -49.8685 17.6336
LeftShoulder1  2.93324 -4.84895 -29.0784
LeftArm  80.2439 -32.8783 -81.2881
LeftForeArm  -15.0435 -16.6242 -13.2632
LeftHand  0.150258 2.44198 -6.60831
RightShoulder  11.5136 19.6715 43.246
RightArm  23.1317 8.66369 21.0858
RightForeArm  37.4178 40.6576 7.21237
RightHand  1.40274 4.80442 15.5529
LeftUpLeg  -108.703 28.8093 -88.7956
LeftLeg  130.043 3.28773 -4.07436
LeftFoot  20.0546 4.92412 -17.8478
LeftToes  1.03528e-008 1.55373e-010 -2.26046e-010
1386
root  14.3903 39.2572 -71.0227 173.582 44.2118 179.884
RightUpLeg  -8.3723 -3.59561 5.78284
RightLeg  21.9484 -15.1038 -6.77938
RightFoot  -6.94732 -0.034165 -0.337353
RightToes  -1.16417e-010 0 -3.6325e-017
Spine  18.576 -0.188142 -5.16551
Spine1  -3.41511 -6.2583 11.0403
HEad  -12.4539 -48.9814 17.4985
LeftShoulder1  2.87503 -4.71599 -28.9345
LeftArm  81.7283 -31.8681 -80.8799
LeftForeArm  -16.2576 -17.02 -12.9502
LeftHand  0.168366 2.26102 -6.86091
RightShoulder  11.5271 19.5077 43.6305
RightArm  23.653 7.62339 21.3787
RightForeArm  39.1624 41.3655 7.31715
RightHand  1.40057 5.05637 15.1411
LeftUpLeg  -110.067 27.0437 -89.0333
LeftLeg  129.995 5.23367 -6.21846
LeftFoot  18.2343 5.44434 -20.8592
LeftToes  1.03528e-008 1.55373e-010 -2.26046e-010
1387
root  14.0955 40.0153 -70.3524 175.279 44.7519 179.515
RightUpLeg  -6.74776 -1.05918 4.34459
RightLeg  12.8494 -2.24626 -1.30425
RightFoot  -1.14323 -0.174082 1.86273
RightToes  -1.16417e-010 0 -3.6325e-017
Spine  18.7375 0.055831 -5.34626
Spine1  -4.36285 -5.83034 10.039
HEad  -11.7503 -48.3209 17.5009
LeftShoulder1  2.82762 -4.64602 -28.6461
LeftArm  84.9417 -32.0931 -81.4179
LeftForeArm  -18.329 -17.759 -12.3231
LeftHand  0.167196 2.36144 -7.07244
RightShoulder  11.3768 19.4973 43.0469
RightArm  23.8418 6.71783 21.5541
RightForeArm  39.4251 42.2829 7.58129
RightHand  1.37022 5.01821 14.8667
LeftUpLeg  -109.61 24.674 -88.7616
LeftLeg  129.664 5.47868 -6.55829
LeftFoot  17.711 6.13425 -23.8052
LeftToes  1.03528e-008 1.55373e-010 -2.26046e-010
1388
root  13.8236 40.3283 -69.662 176.041 44.5425 179.689
RightUpLeg  -5.31678 0.693675 3.81462
RightLeg  11.7097 0.0613616 -1.96378
RightFoot  -1.80288 -0.635416 7.45757
RightToes  -1.16417e-010 0 -3.6325e-017
Spine  19.5068 0.328028 -5.49998
Spine1  -4.46514 -5.43241 9.31269
HEad  -11.4059 -48.032 18.0861
LeftShoulder1  2.80139 -4.63158 -28.3787
LeftArm  85.904 -32.847 -82.9384
LeftForeArm  -18.171 -17.8106 -12.2582
LeftHand  0.153573 2.57048 -7.09112
RightShoulder  11.2273 19.698 42.0442
RightArm  23.803 5.70704 21.1607
RightForeArm  38.2335 42.8231 7.82545
RightHand  1.31739 4.7044 14.7501
LeftUpLeg  -107.799 23.1006 -87.5084
LeftLeg  129.228 4.70587 -5.78743
LeftFoot  18.2835 6.79734 -25.7588
LeftToes  1.03528e-008 1.55373e-010 -2.26046e-010
1389
root  13.5989 40.2528 -68.9645 177.034 43.8534 -179.46
RightUpLeg  -5.13015 1.83002 3.37983
RightLeg  17.8995 -8.9854 -3.73078
RightFoot  -4.20404 -0.338598 4.966
RightToes  -1.16417e-010 0 -3.6325e-017
Spine  19.9087 0.559428 -4.95589
Spine1  -4.31744 -5.01364 8.52831
HEad  -10.481 -47.9942 17.9635
LeftShoulder1  2.79759 -4.61083 -28.4209
LeftArm  88.9767 -32.8781 -84.6652
LeftForeArm  -18.9493 -18.3906 -11.6791
LeftHand  0.140977 2.60111 -6.6416
RightShoulder  10.9977 19.6791 41.1516
RightArm  23.9768 5.03702 20.2195
RightForeArm  35.4035 42.3214 7.84707
RightHand  1.27492 4.32922 14.8434
LeftUpLeg  -105.42 22.0403 -85.5748
LeftLeg  128.737 3.26585 -4.22888
LeftFoot  18.6979 6.92893 -25.8774
LeftToes  1.03528e-008 1.55373e-010 -2.26046e-010
1390
root  13.4113 39.7439 -68.3209 177.884 42.5406 -178.67
RightUpLeg  -4.45345 0.460963 3.27539
RightLeg  25.478 -11.3287 -6.04475
RightFoot  -10.6116 -0.130752 9.16904
RightToes  -1.16417e-010 0 -3.6325e-017
Spine  19.8829 0.4475 -4.90472
Spine1  -3.73826 -4.97254 8.2306
HEad  -8.94279 -47.939 17.5032
LeftShoulder1  2.76515 -4.5162 -28.4226
LeftArm  92.9071 -32.3392 -85.9686
LeftForeArm  -20.8112 -19.1914 -10.8916
LeftHand  0.136954 2.52813 -6.28158
RightShoulder  10.8087 19.5197 40.6901
RightArm  25.0014 4.6718 19.2722
RightForeArm  32.5639 41.606 7.8049
RightHand  1.26563 4.18405 14.9665
LeftUpLeg  -102.474 21.1146 -83.8559
LeftLeg  128.499 2.05788 -2.85517
LeftFoot  17.5806 6.34707 -24.7042
LeftToes  1.03528e-008 1.55373e-010 -2.26046e-010
1391
root  13.3085 38.8564 -67.6478 178.484 41.3321 -177.813
RightUpLeg  -3.18764 2.83156 4.43495
RightLeg  29.6394 -9.88124 -6.25912
RightFoot  -18.0593 0.390047 8.72094
RightToes  -1.16417e-010 0 -3.6325e-017
Spine  19.8916 0.391795 -5.56421
Spine1  -3.158 -5.07754 8.54424
HEad  -7.73587 -47.7739 17.3686
LeftShoulder1  2.75142 -4.48323 -28.3921
LeftArm  94.5466 -32.0215 -86.8197
LeftForeArm  -21.0314 -19.522 -10.5162
LeftHand  0.126496 2.63791 -6.11565
RightShoulder  10.6565 19.1997 40.6881
RightArm  25.8908 4.1171 18.5636
RightForeArm  31.2261 41.6203 7.89556
RightHand  1.25979 4.02747 15.154
LeftUpLeg  -100.513 20.6831 -82.6638
LeftLeg  128.813 1.74692 -2.46749
LeftFoot  16.9272 6.03781 -24.0873
LeftToes  1.03528e-008 1.55373e-010 -2.26046e-010
1392
root  13.3125 37.8589 -67.0144 -179.762 40.3686 -175.558
RightUpLeg  -3.52167 6.26861 7.62432
RightLeg  31.073 -10.6983 -7.12445
RightFoot  -25.768 0.696625 6.88077
RightToes  -1.16417e-010 0 -3.6325e-017
Spine  20.1516 0.157376 -4.88903
Spine1  -3.20045 -5.18013 8.65187
HEad  -8.01551 -47.1228 17.7924
LeftShoulder1  2.7064 -4.40174 -28.1717
LeftArm  92.5998 -31.9092 -87.2395
LeftForeArm  -18.3271 -18.9917 -10.9551
LeftHand  0.112503 2.77537 -5.84615
RightShoulder  10.534 18.7103 41.1528
RightArm  26.0383 3.1091 18.0867
RightForeArm  31.6261 42.4298 8.12627
RightHand  1.19009 3.81679 14.6511
LeftUpLeg  -99.5696 20.8298 -80.737
LeftLeg  129.443 2.68046 -3.47219
LeftFoot  18.2171 6.48376 -24.6771
LeftToes  1.03528e-008 1.55373e-010 -2.26046e-010
1393
root  13.1705 36.7895 -66.28 -177.343 41.1336 -172.383
RightUpLeg  -9.70312 8.72469 11.5147
RightLeg  41.0568 -11.6855 -10.9734
RightFoot  -27.3787 0.756888 6.68817
RightToes  -1.16417e-010 0 -3.6325e-017
Spine  20.4378 0.178792 -3.96632
Spine1  -2.04947 -5.10531 7.84271
HEad  -11.3666 -44.6737 20.4724
LeftShoulder1  2.70589 -4.36372 -28.3345
LeftArm  92.4225 -32.4597 -86.372
LeftForeArm  -18.8381 -18.9471 -11.0412
LeftHand  0.100452 2.94539 -5.72678
RightShoulder  11.0539 19.055 42.6259
RightArm  25.2295 4.56671 17.4395
RightForeArm  31.6765 41.5992 7.85987
RightHand  1.21055 3.88571 14.7895
LeftUpLeg  -101.231 21.2347 -80.8649
LeftLeg  129.866 0.258192 -0.726403
LeftFoot  19.4322 6.34217 -23.2163
LeftToes  1.03528e-008 1.55373e-010 -2.26046e-010
1394
root  13.0484 36.3713 -65.7884 -175.983 39.5574 -170.928
RightUpLeg  -12.3891 6.83033 12.9757
RightLeg  43.6891 -11.2493 -11.5757
RightFoot  -28.2632 0.727288 6.17662
RightToes  -1.16417e-010 0 -3.6325e-017
Spine  19.9817 -0.864605 -5.94512
Spine1  0.0141431 -6.89326 10.2137
HEad  -11.5288 -41.9779 20.4084
LeftShoulder1  2.71278 -4.49429 -27.8471
LeftArm  88.8894 -33.3263 -86.0378
LeftForeArm  -17.2628 -18.1484 -11.8349
LeftHand  0.0945209 2.99293 -5.56192
RightShoulder  11.4394 19.6579 42.9764
RightArm  24.6872 5.87955 17.9188
RightForeArm  30.2943 39.8314 7.40979
RightHand  1.27077 4.28966 14.8576
LeftUpLeg  -100.793 22.955 -82.763
LeftLeg  129.359 -3.42941 3.44933
LeftFoot  21.9337 5.12741 -17.5083
LeftToes  1.03528e-008 1.55373e-010 -2.26046e-010
1395
root  12.9491 36.1843 -65.475 -174.738 37.3249 -169.181
RightUpLeg  -13.6647 5.74506 14.837
RightLeg  44.4017 -11.7385 -12.3353
RightFoot  -28.157 0.678615 5.88252
RightToes  -1.16417e-010 0 -3.6325e-017
Spine  20.8012 -1.13597 -6.17124
Spine1  -1.00238 -7.36718 11.9775
HEad  -11.2017 -42.8022 20.4559
LeftShoulder1  2.86708 -4.55165 -29.5608
LeftArm  80.7307 -35.1273 -87.1185
LeftForeArm  -6.23001 -15.9149 -13.4113
LeftHand  0.056797 3.58456 -5.17517
RightShoulder  10.4748 17.9178 42.5508
RightArm  24.2889 5.45829 17.5414
RightForeArm  29.2869 40.2105 7.58685
RightHand  1.13703 3.88098 13.8924
LeftUpLeg  -99.0026 23.6766 -83.5952
LeftLeg  129.03 -5.33527 5.66386
LeftFoot  24.0241 4.37916 -14.1543
LeftToes  1.03528e-008 1.55373e-010 -2.26046e-010
